<?xml version="1.0" encoding="utf-8"?>
<!-- Generator: Adobe Illustrator 18.0.0, SVG Export Plug-In . SVG Version: 6.00 Build 0)  -->
<!DOCTYPE svg PUBLIC "-//W3C//DTD SVG 1.1//EN" "http://www.w3.org/Graphics/SVG/1.1/DTD/svg11.dtd">
<svg version="1.1" id="Your_Icon" xmlns="http://www.w3.org/2000/svg" xmlns:xlink="http://www.w3.org/1999/xlink" x="0px" y="0px"
	 viewBox="0 0 100 100" enable-background="new 0 0 100 100" xml:space="preserve">
<path fill="#FFFFFF" d="M90.6,25.4c-0.3-0.4-0.9-0.7-1.5-0.6c-0.3,0-0.7,0.1-1.3,0.2c-0.5,0.1-1.1,0.3-1.8,0.4
	c0.3-0.6,0.5-1.2,0.7-1.9c0.3-1.1,0.6-2.2,0.9-3.4c0.1-0.6-0.1-1.2-0.6-1.6c-0.5-0.4-1.2-0.4-1.7-0.1c-2.5,1.4-4.3,2.2-5.9,2.8
	c-1.3,0.5-2.5,0.7-3.8,0.9c-1.5-1.4-3.2-2.5-5-3.3c-2.1-0.9-4.3-1.3-6.5-1.3c-2.7,0-5.4,0.6-8.1,1.7l0,0c-1.3,0.6-2.5,1.4-3.6,2.4
	c-1.7,1.5-3,3.4-4,5.6s-1.6,4.5-1.6,6.9c0,0.3,0,0.5,0,0.8c0,0-0.1,0-0.1,0c-2.9-0.8-7.3-2.3-11.6-4.2c-1.8-0.8-4.3-2.4-6.7-4.4
	c-2.4-2-4.8-4.6-6.5-7.2c-0.3-0.4-0.7-0.6-1.2-0.7s-0.9,0.1-1.3,0.5c-0.8,0.7-1.4,1.4-1.9,2.1c-0.8,1-1.4,2.1-1.8,3.2
	c-0.4,1.1-0.6,2.3-0.8,3.7c-0.1,0.9-0.1,1.9-0.1,3c0,2.3,0.3,4.7,1.3,6.9c-0.7,0.1-1.3,0.7-1.4,1.4c0,0.6-0.1,1.2-0.1,1.7
	c0,5.1,1.6,9.3,4.2,12.2c0.3,0.3,0.5,0.5,0.8,0.8c0,0,0,0,0,0c0,0.1,0,0.2,0,0.3c0,2,0.5,3.8,1.4,5.4c1.3,2.4,3.3,4.4,5.7,5.9
	c0.9,0.5,1.8,1,2.7,1.4c-4,1.3-7.2,1.6-9.9,1.6c-1.2,0-2.3-0.1-3.3-0.1c-1-0.1-1.9-0.1-2.7-0.1c-0.2,0-0.4,0-0.6,0
	c-0.5,0-0.9,0.3-1.2,0.6c-0.3,0.4-0.4,0.9-0.3,1.3c0.5,1.9,1.6,3.6,3.1,5.1c2.3,2.3,5.7,4.2,9.7,5.5c4,1.3,8.7,2.1,13.7,2.1
	c7.3,0,15.4-1.7,23.1-5.9C68,73.3,73.9,67,77.4,60c1.2-2.4,2.5-5.6,3.6-8.9c1-3.3,1.8-6.8,1.8-10.1c0-1.1-0.1-2.2-0.3-3.2
	c0.9-0.6,1.7-1.3,2.4-1.9c1.4-1.3,2.6-2.5,3.5-4c0.9-1.5,1.7-3.1,2.4-4.9C91,26.5,90.9,25.9,90.6,25.4z M83.9,32.5
	c-1,1.1-2.4,2.2-4.1,3.4c-0.6,0.4-0.8,1.1-0.6,1.8c0.3,1,0.4,2.1,0.4,3.4c0,2.8-0.7,6-1.6,9.2c-1,3.1-2.3,6.1-3.4,8.4
	c-3.2,6.4-8.7,12.3-15.1,15.8c-7.2,3.9-14.8,5.5-21.6,5.5c-6.3,0-12-1.3-16.2-3.3c-2.1-1-3.8-2.2-5.1-3.4c-0.6-0.5-1-1.1-1.4-1.6
	c0.2,0,0.4,0,0.6,0c1,0.1,2.2,0.1,3.5,0.1c4,0,9.2-0.6,15.7-3.6c0.6-0.3,1-1,0.9-1.7c-0.1-0.7-0.7-1.2-1.4-1.3
	c-1.4-0.1-2.9-0.5-4.3-1.1C28,63,26.1,61.7,24.7,60c-0.7-0.8-1.2-1.7-1.6-2.7c-0.1-0.2-0.1-0.4-0.2-0.5c0.4,0.2,0.8,0.3,1.2,0.4
	c1.3,0.4,2.5,0.5,3.9,0.5c0,0-0.1,0-0.1,0V58c0,0,0.3,0,0.3,0c0.9,0,1.6-0.8,1.6-1.7c0-0.9-0.7-1.7-1.5-1.7c-2.6,0-5.3-1.3-7.3-3.5
	c-1.7-2-3-4.8-3.3-8.4c0.5,0.1,1,0.1,1.6,0.2c0.8,0.1,1.7,0.1,2.8,0.3c0.8,0.1,1.6-0.5,1.7-1.2s-0.3-1.6-1.1-1.8
	c-1-0.3-1.8-0.8-2.4-1.3c-0.5-0.4-0.8-0.9-1.2-1.5c-0.5-0.8-0.8-1.8-1-2.9c-0.2-1.1-0.3-2.3-0.3-3.4c0-0.9,0.1-1.8,0.1-2.7
	c0.1-0.8,0.2-1.5,0.3-2.1c0.2-0.9,0.5-1.6,1-2.4c0.3-0.4,0.6-0.8,1-1.3c1.8,2.3,3.9,4.4,6,6.2c2.6,2.2,5.3,3.9,7.4,4.9
	c3,1.3,6,2.5,8.6,3.3c1.3,0.4,2.5,0.8,3.5,1c1,0.3,1.9,0.5,2.6,0.6c0.5,0.1,1-0.1,1.4-0.5c0.4-0.4,0.5-0.9,0.4-1.4
	c-0.2-0.8-0.3-1.6-0.3-2.4c0-2.5,0.9-5.1,2.2-7.3c0.7-1.1,1.5-2.1,2.4-2.9c0.9-0.8,1.8-1.4,2.7-1.8l0,0c2.3-1,4.7-1.5,6.9-1.5
	c1.9,0,3.6,0.3,5.3,1c1.7,0.7,3.2,1.7,4.5,3.1c0,0,0,0,0.1,0.1c0,0,0.1,0.1,0.1,0.1c0,0,0.1,0.1,0.1,0.1c0,0,0.1,0.1,0.1,0.1
	c0,0,0.1,0,0.1,0.1c0,0,0.1,0,0.1,0c0.1,0,0.1,0,0.1,0c0.1,0,0.1,0,0.2,0c0.1,0,0.1,0,0.2,0c0,0,0.1,0,0.1,0
	c1.8-0.2,3.4-0.5,5.2-1.2c1-0.4,2-0.8,3.2-1.3c-0.2,0.7-0.4,1.2-0.7,1.7c-0.3,0.6-0.6,1.1-1,1.5c-0.4,0.4-0.9,0.7-1.5,0.9
	c-0.8,0.3-1.2,1.2-0.9,2c0.3,0.8,1.1,1.2,1.9,1c1.9-0.6,3.7-1.1,5.2-1.4c-0.1,0.1-0.1,0.2-0.2,0.3C85.7,30.3,85,31.4,83.9,32.5z"/>
</svg>
